<svg enable-background="new 0 0 500 500" height="316.227766" viewBox="0 0 500 500" width="316.227766" xmlns="http://www.w3.org/2000/svg" xmlns:xlink="http://www.w3.org/1999/xlink"><linearGradient id="a"><stop offset="0" stop-color="#2b57a1"/><stop offset=".3206" stop-color="#2d59a3"/><stop offset=".494" stop-color="#305ca6"/><stop offset=".8437" stop-color="#3562af"/><stop offset=".9983" stop-color="#6895e0"/></linearGradient><linearGradient id="b" gradientUnits="userSpaceOnUse" x1="77.5639" x2="136.5378" xlink:href="#a" y1="359.4923" y2="161.0623"/><linearGradient id="c" gradientUnits="userSpaceOnUse" x1="96.9981" x2="155.9721" xlink:href="#a" y1="365.2682" y2="166.8382"/><linearGradient id="d"><stop offset="0" stop-color="#2b57a1"/><stop offset=".3206" stop-color="#2d59a3"/><stop offset=".494" stop-color="#305ca6"/><stop offset=".9352" stop-color="#6895e0"/></linearGradient><linearGradient id="e" gradientUnits="userSpaceOnUse" x1="228.966" x2="230.3536" xlink:href="#d" y1="320.2667" y2="179.423"/><linearGradient id="f" gradientUnits="userSpaceOnUse" x1="361.4784" x2="354.6601" xlink:href="#d" y1="341.1843" y2="157.0901"/><linearGradient id="g" gradientUnits="userSpaceOnUse" x1="250.4039" x2="249.0815" xlink:href="#a" y1="466.497" y2="47.2835"/><path d="m143.9 190.5c0 9.1-7.2 16.2-16 16.2-9.1 0-16.2-7.2-16.2-16.2 0-8.9 7.4-16 16.4-16 8.6-.1 15.8 7.3 15.8 16z" fill="url(#b)"/><path d="m113.2 230.6c0-6.8.2-8.6 2-11.9 2.1-4.3 7.2-7.2 12.5-7.2 5.1 0 10.2 2.9 12.3 7.2 1.8 3.3 2 4.9 2 11.9v63.5c0 6.8-.2 8.6-2 11.9-2.1 4.3-7.2 7.2-12.3 7.2-5.3 0-10.3-2.9-12.5-7.2-1.8-3.3-2-4.9-2-11.9z" fill="url(#c)"/><path d="m156.5 227.7c0-10 5.7-16.7 14.3-16.7 5.7 0 8.8 2 13.9 9.4 8-7.3 15.1-10 25.3-10 7.1 0 14.3 1.8 19.6 4.9 2.9 1.6 4.7 3.3 8 7.7 11.6-9.4 19.2-12.6 30.2-12.6 20 0 34.7 14.1 34.7 33.4v50.2c0 6.9-.2 8.6-2 12-2.2 4.3-7.3 7.3-12.4 7.3-5.3 0-10.4-2.9-12.6-7.3-1.8-3.3-2-4.9-2-12v-43.8c0-8.8-5.9-14.9-14.7-14.9s-15.1 6.1-15.1 14.9v43.8c0 6.9-.2 8.6-2 12-2.2 4.3-7.3 7.3-12.4 7.3-5.3 0-10.4-2.9-12.6-7.3-1.8-3.3-2-4.9-2-12v-41c0-11.2-5.5-17.7-14.9-17.7-8.6 0-14.9 6.3-14.9 14.9v43.8c0 6.9-.2 8.6-2 12-2.2 4.3-7.3 7.3-12.4 7.3-5.3 0-10.4-2.9-12.6-7.3-1.8-3.3-2-4.9-2-12v-66.3z" fill="url(#e)"/><path d="m395.8 226.3c8.9 9.4 13.7 22.5 13.7 36.9 0 30.1-21.8 52.7-50.8 52.7-14.1 0-28-6-37.3-16-9.1-9.6-13.7-22.3-13.7-37.5 0-29.3 22.2-52.1 51-52.1 13.9 0 27.8 6 37.1 16zm-58.1 36.5c0 14.8 8.7 25.7 20.3 25.7 12 0 21.4-11.2 21.4-25.5 0-14-9.3-25.3-21.4-25.3-11.3.1-20.3 11.1-20.3 25.1z" fill="url(#f)"/><path d="m254.8 486.2c-49.4 0-95.2-15.2-133.1-41.1-17.9 9.4-58.1 11.5-75.6 9.4-25.5-3-52.2-24.1-26.5-44.7 39.9-31.8 29.2-44.4 29.2-44.4-19.1-34.1-30-73.5-30-115.4 0-130.4 105.7-236.2 236.1-236.2s236.1 105.7 236.1 236.2-105.8 236.2-236.2 236.2zm0-437.8c-112.1 0-203 90.9-203 203.1 0 38.6 10.8 74.7 29.5 105.4 0 0 13.3 34.5-20.8 60.2 21.4 7.2 66.5-6 68.8-6 34.5 27.2 78.1 43.5 125.5 43.5 112.1 0 203-90.9 203-203.1s-90.9-203.1-203-203.1z" fill="url(#g)"/></svg>